<svg width="22" height="22" viewBox="0 0 22 22" fill="none" xmlns="http://www.w3.org/2000/svg">
<path d="M11.1467 9.96418C11.055 9.95501 10.945 9.95501 10.8442 9.96418C8.66249 9.89084 6.92999 8.10334 6.92999 5.90334C6.92999 3.65751 8.74499 1.83334 11 1.83334C13.2458 1.83334 15.07 3.65751 15.07 5.90334C15.0608 8.10334 13.3283 9.89084 11.1467 9.96418Z" stroke="#828282" stroke-width="1.5" stroke-linecap="round" stroke-linejoin="round"/>
<path d="M6.56335 13.3467C4.34501 14.8317 4.34501 17.2517 6.56335 18.7275C9.08418 20.4142 13.2183 20.4142 15.7392 18.7275C17.9575 17.2425 17.9575 14.8225 15.7392 13.3467C13.2275 11.6692 9.09335 11.6692 6.56335 13.3467Z" stroke="#828282" stroke-width="1.5" stroke-linecap="round" stroke-linejoin="round"/>
</svg>
